<svg width="140" height="50" viewBox="0 0 140 50" fill="none" xmlns="http://www.w3.org/2000/svg">
<path d="M88.361 0.341293V11.4298L77.8593 0.341293H75.5781V20.8897H78.3203V4.69407L88.361 15.2796V20.8897H91.1032V0.341293H88.361Z" fill="#56231E"/>
<path d="M54.5742 10.6155C54.5742 8.51995 54.9574 6.67586 55.7178 5.07725C56.4961 3.47864 57.6038 2.23328 59.0288 1.34117C60.4777 0.449063 62.1841 1.52588e-05 64.1659 1.52588e-05C66.1477 1.52588e-05 67.8481 0.449063 69.2731 1.34117C70.722 2.23328 71.8237 3.47864 72.584 5.07725C73.3624 6.67586 73.7516 8.51995 73.7516 10.6155C73.7516 12.7111 73.3624 14.5552 72.584 16.1538C71.8237 17.7524 70.722 18.9977 69.2731 19.8899C67.8481 20.782 66.1417 21.231 64.1659 21.231C62.1901 21.231 60.4538 20.782 59.0288 19.8899C57.6038 18.9977 56.4961 17.7524 55.7178 16.1538C54.9574 14.5552 54.5742 12.7111 54.5742 10.6155ZM57.4302 10.6155C57.4302 12.3638 57.7056 13.8487 58.2564 15.0701C58.8072 16.2675 59.5856 17.1836 60.5974 17.8123C61.6033 18.423 62.7948 18.7283 64.1659 18.7283C65.537 18.7283 66.7225 18.423 67.7343 17.8123C68.7402 17.1836 69.5245 16.2735 70.0754 15.0701C70.6262 13.8546 70.9016 12.3698 70.9016 10.6155C70.9016 8.86123 70.6262 7.38835 70.0754 6.19089C69.5245 4.97547 68.7462 4.05941 67.7343 3.4487C66.7285 2.82004 65.537 2.5087 64.1659 2.5087C62.7948 2.5087 61.6093 2.82004 60.5974 3.4487C59.5916 4.05941 58.8072 4.96948 58.2564 6.19089C57.7056 7.38835 57.4302 8.86123 57.4302 10.6155Z" fill="#56231E"/>
<path d="M50.006 10.5018V18.4888C49.7306 18.5607 49.4492 18.6265 49.1498 18.6924C48.617 18.7882 48.0661 18.8361 47.4974 18.8361C45.9347 18.8361 44.5935 18.5487 43.4739 17.9799C42.3483 17.3872 41.4861 16.495 40.8754 15.2976C40.2647 14.0822 39.9593 12.5195 39.9593 10.6155C39.9593 7.81944 40.6539 5.77178 42.0429 4.47852C43.432 3.1673 45.324 2.5087 47.7249 2.5087C48.6948 2.5087 49.569 2.61048 50.3533 2.82004C51.1316 3.02959 51.7783 3.26909 52.2932 3.53253H52.5207V0.916073C51.9519 0.628683 51.2634 0.413139 50.4671 0.257469C49.6648 0.0838376 48.7547 1.52588e-05 47.7249 1.52588e-05C45.4796 1.52588e-05 43.5697 0.449063 41.989 1.34117C40.4084 2.21532 39.1989 3.45469 38.3667 5.0533C37.5285 6.63395 37.1094 8.49002 37.1094 10.6155C37.1094 12.741 37.4926 14.609 38.253 16.2077C39.0133 17.7883 40.1629 19.0217 41.7076 19.9198C43.2464 20.7939 45.1803 21.231 47.5033 21.231C48.5332 21.231 49.5031 21.1292 50.4132 20.9197C51.3472 20.7101 52.1255 20.4347 52.7542 20.0934V10.5018H50.012H50.006Z" fill="#56231E"/>
<path d="M0.227518 17.5249H0.455035C0.910071 17.7703 1.42498 17.9919 1.99377 18.1835C2.58652 18.3571 3.22117 18.4888 3.90372 18.5846C4.61023 18.6804 5.35864 18.7283 6.16094 18.7283C7.077 18.7283 7.88528 18.6445 8.5858 18.4709C9.31026 18.2793 9.86708 17.9739 10.2682 17.5548C10.6873 17.1177 10.8969 16.519 10.8969 15.7586C10.8969 14.8425 10.6335 14.1899 10.1006 13.7888C9.58568 13.3876 8.80733 13.0942 7.75955 12.9027L5.25087 12.4476C4.29889 12.274 3.42474 11.9746 2.62244 11.5316C1.82613 11.0765 1.18549 10.4479 0.71249 9.64556C0.239492 8.84925 0 7.83739 0 6.62197C0 5.1012 0.353251 3.85584 1.05377 2.88589C1.77823 1.89799 2.77811 1.17352 4.04742 0.718486C5.34068 0.245489 6.84349 0.0059967 8.55586 0.0059967C9.35217 0.0059967 10.1425 0.0838317 10.9268 0.233514C11.7231 0.383197 12.3818 0.574791 12.8967 0.802309V3.43074H12.6691C12.2141 3.20322 11.6333 2.99366 10.9268 2.80207C10.2443 2.61048 9.41205 2.51468 8.4421 2.51468C7.37636 2.51468 6.40642 2.6464 5.53227 2.91583C4.67609 3.17927 3.99353 3.61036 3.47863 4.19711C2.98168 4.78986 2.7362 5.55623 2.7362 6.50821C2.7362 7.70567 3.04754 8.5439 3.67621 9.01689C4.30487 9.48989 5.16705 9.83716 6.2747 10.0467L8.78338 10.5017C9.75332 10.6754 10.5975 10.9688 11.322 11.3879C12.0465 11.807 12.6033 12.3698 13.0044 13.0703C13.4235 13.7529 13.6331 14.609 13.6331 15.6389C13.6331 16.5729 13.4535 17.3871 13.0883 18.0937C12.723 18.8002 12.2141 19.3869 11.5495 19.8659C10.9029 20.3209 10.1245 20.6622 9.20848 20.8957C8.29242 21.1232 7.27458 21.237 6.15495 21.237C5.35864 21.237 4.59226 21.1891 3.87379 21.0933C3.16729 20.9975 2.50269 20.8718 1.87403 20.7221C1.26332 20.5724 0.712489 20.3988 0.22153 20.2072V17.5249H0.227518Z" fill="#56231E"/>
<path d="M32.541 0.341293H35.2832V20.8897H32.541V0.341293Z" fill="#56231E"/>
<path d="M29.8058 20.8897V0.544856C29.1053 0.389186 28.4228 0.281414 27.7582 0.227528C27.0756 0.149693 26.3871 0.11377 25.7045 0.11377C24.2796 0.11377 23.0701 0.263452 22.0822 0.568805C21.0943 0.874158 20.286 1.32919 19.6574 1.9399C19.0287 2.5506 18.5258 3.29303 18.1426 4.16718C17.7833 5.04132 17.5079 6.05318 17.3163 7.19077L15.0352 20.8897H17.8312L18.879 14.609H27.0816V20.8897H29.8178H29.8058ZM19.2682 12.2141L20.1064 7.19077C20.298 6.12503 20.5734 5.25088 20.9327 4.56234C21.3158 3.87979 21.8667 3.36488 22.5852 3.0236C23.3276 2.68232 24.3275 2.50869 25.5788 2.50869C25.9979 2.50869 26.3751 2.52665 26.7224 2.56857C26.8601 2.58054 26.9798 2.61048 27.0996 2.63443C27.0876 2.73621 27.0696 2.83201 27.0637 2.93978V12.2141H19.2622H19.2682Z" fill="#56231E"/>
<path d="M134.266 42.6715C134.924 42.3422 135.523 41.9291 136.062 41.4322C136.804 40.7496 137.385 39.9114 137.804 38.9235C138.241 37.9176 138.463 36.774 138.463 35.4987C138.463 34.1277 138.187 32.9661 137.636 32.0201C137.086 31.0681 136.307 30.3437 135.295 29.8527C134.29 29.3558 133.098 29.1103 131.727 29.1103H127.045H125.901H124.303V49.6587H127.045V43.4918H130.697C131.044 43.4918 131.38 43.4619 131.715 43.4259L136.517 49.6587H139.714V49.545L134.266 42.6775V42.6715ZM127.045 40.9771V31.5052H131.613C132.811 31.5052 133.775 31.8285 134.493 32.4752C135.236 33.1218 135.607 34.1277 135.607 35.4987C135.607 36.4507 135.427 37.3428 135.062 38.1811C134.721 39.0193 134.188 39.6959 133.463 40.2048C132.757 40.7197 131.877 40.9771 130.811 40.9771H127.045Z" fill="#56231E"/>
<path d="M90.8029 29.1043H106.783V31.4992H100.161V49.6468H97.4188V31.4992H90.7969V29.1043H90.8029Z" fill="#56231E"/>
<path d="M75.9735 46.2879H76.201C76.656 46.5334 77.1709 46.7549 77.7397 46.9465C78.3325 47.1201 78.9671 47.2518 79.6497 47.3476C80.3562 47.4434 81.1046 47.4913 81.9069 47.4913C82.823 47.4913 83.6313 47.4075 84.3318 47.2339C85.0562 47.0423 85.6131 46.7369 86.0142 46.3178C86.4333 45.8807 86.6429 45.282 86.6429 44.5216C86.6429 43.6116 86.3794 42.953 85.8466 42.5518C85.3316 42.1507 84.5533 41.8573 83.5055 41.6657L80.9968 41.2106C80.0449 41.037 79.1707 40.7376 78.3744 40.3006C77.5781 39.8455 76.9374 39.2169 76.4644 38.4146C75.9914 37.6123 75.752 36.6064 75.752 35.391C75.752 33.8702 76.1052 32.6248 76.8057 31.6549C77.5302 30.667 78.5301 29.9425 79.7994 29.4875C81.0926 29.0145 82.5954 28.775 84.3078 28.775C85.1041 28.775 85.8945 28.8528 86.6788 29.0025C87.4751 29.1522 88.1337 29.3438 88.6486 29.5713V32.1997H88.4211C87.9661 31.9722 87.3853 31.7627 86.6788 31.5711C85.9962 31.3795 85.164 31.2837 84.1941 31.2837C83.1283 31.2837 82.1584 31.4154 81.2842 31.6848C80.428 31.9483 79.7455 32.3794 79.2306 32.9661C78.7336 33.5589 78.4882 34.3252 78.4882 35.2772C78.4882 36.4747 78.7995 37.3129 79.4282 37.7859C80.0568 38.2589 80.919 38.6062 82.0267 38.8157L84.5353 39.2708C85.5053 39.4444 86.3495 39.7378 87.0739 40.1569C87.7984 40.576 88.3552 41.1388 88.7564 41.8393C89.1755 42.5219 89.385 43.378 89.385 44.4079C89.385 45.3419 89.2054 46.1562 88.8402 46.8627C88.481 47.5692 87.9661 48.1559 87.3015 48.6289C86.6548 49.084 85.8765 49.4252 84.9604 49.6587C84.0504 49.8863 83.0265 50 81.9069 50C81.1106 50 80.3442 49.9521 79.6257 49.8563C78.9192 49.7605 78.2546 49.6348 77.626 49.4851C77.0153 49.3354 76.4644 49.1618 75.9735 48.9702V46.2879Z" fill="#56231E"/>
<path d="M63.6874 42.6715C64.346 42.3422 64.9447 41.9291 65.4836 41.4322C66.226 40.7496 66.8067 39.9114 67.2259 38.9235C67.6629 37.9176 67.8845 36.774 67.8845 35.4987C67.8845 34.1277 67.609 32.9661 67.0582 32.0201C66.5074 31.0681 65.729 30.3437 64.7172 29.8527C63.7113 29.3558 62.5198 29.1103 61.1487 29.1103H53.7305V49.6587H56.4727V43.4918H60.1249C60.4722 43.4918 60.8075 43.4619 61.1428 43.4259L65.9446 49.6587H69.1418V49.545L63.6933 42.6775L63.6874 42.6715ZM56.4667 40.9771V31.5052H61.035C62.2324 31.5052 63.1964 31.8285 63.9149 32.4752C64.6573 33.1218 65.0285 34.1277 65.0285 35.4987C65.0285 36.4507 64.8489 37.3428 64.4837 38.1811C64.1424 39.0193 63.6095 39.6959 62.8851 40.2048C62.1786 40.7197 61.2984 40.9771 60.2327 40.9771H56.4667Z" fill="#56231E"/>
<path d="M40.7069 47.2578V40.0671H49.3825V37.6662H40.7069V31.5052H50.9811V29.1043H40.7069H39.5693H37.9707V49.6527H39.5693H40.7069H51.3224V47.2578H40.7069Z" fill="#56231E"/>
<path d="M9.96887 42.6715C10.6275 42.3422 11.2262 41.9291 11.7651 41.4322C12.5075 40.7496 13.0883 39.9114 13.5074 38.9235C13.9444 37.9176 14.166 36.774 14.166 35.4987C14.166 34.1277 13.8906 32.9661 13.3397 32.0201C12.7889 31.0681 12.0105 30.3437 10.9987 29.8527C9.99282 29.3558 8.80134 29.1103 7.43025 29.1103H0V49.6587H2.74219V43.4918H6.39444C6.74171 43.4918 7.077 43.4619 7.41229 43.4259L12.2141 49.6587H15.4113V49.545L9.96288 42.6775L9.96887 42.6715ZM2.74219 40.9771V31.5052H7.3105C8.50796 31.5052 9.47192 31.8285 10.1904 32.4752C10.9328 33.1218 11.304 34.1277 11.304 35.4987C11.304 36.4507 11.1244 37.3428 10.7592 38.1811C10.4179 39.0193 9.88504 39.6959 9.16058 40.2048C8.45408 40.7197 7.57394 40.9771 6.5082 40.9771H2.74219Z" fill="#56231E"/>
<path d="M33.7991 29.1043L31.7455 43.0308C31.6138 43.9648 31.3623 44.7731 31.0031 45.4556C30.6438 46.1382 30.087 46.6711 29.3506 47.0543C28.6261 47.4135 27.6382 47.5991 26.3809 47.5991C25.9617 47.5991 25.5905 47.5871 25.2672 47.5692C25.1594 47.5572 25.0637 47.5392 24.9619 47.5213C24.9679 47.4135 24.9738 47.3117 24.9798 47.198C24.9978 46.8387 25.0098 46.4735 25.0098 46.1142V29.1043H22.2676V44.6294C22.2676 44.7491 22.2676 44.8749 22.2676 45.0126V49.5629C22.9681 49.7186 23.6267 49.8264 24.2374 49.8803C24.902 49.9581 25.5786 49.994 26.2611 49.994C27.6861 49.994 28.8895 49.8443 29.8595 49.539C30.8474 49.2336 31.6557 48.7786 32.2843 48.1679C32.913 47.5572 33.398 46.8148 33.7393 45.9406C34.0985 45.0665 34.3679 44.0546 34.5356 42.917L36.5892 29.1043H33.7931H33.7991Z" fill="#56231E"/>
<path d="M121.566 49.6527V29.3139C120.865 29.1582 120.177 29.0504 119.512 28.9965C118.83 28.9187 118.141 28.8828 117.458 28.8828C116.033 28.8828 114.824 29.0324 113.836 29.3378C112.848 29.6432 112.04 30.0982 111.411 30.7089C110.783 31.3196 110.28 32.062 109.896 32.9362C109.537 33.8103 109.262 34.8222 109.07 35.9598L106.789 49.6587H109.585L110.633 43.378H118.836V49.6587H121.572L121.566 49.6527ZM111.028 40.9771L111.866 35.9538C112.058 34.888 112.333 34.0139 112.693 33.3253C113.076 32.6428 113.627 32.1279 114.345 31.7866C115.087 31.4453 116.087 31.2717 117.339 31.2717C117.758 31.2717 118.135 31.2897 118.482 31.3316C118.62 31.3436 118.74 31.3735 118.859 31.3974C118.848 31.4992 118.83 31.595 118.824 31.7028V40.9771H111.022H111.028Z" fill="#56231E"/>
<path d="M16.7891 29.1043H19.5312V49.6527H16.7891V29.1043Z" fill="#56231E"/>
<path d="M139.487 18.4289C138.308 18.5127 137.122 18.5846 135.937 18.6205C133.967 18.6864 131.997 18.7163 130.027 18.7522C129.794 18.7522 129.56 18.7223 129.327 18.6983C129.321 18.6564 129.309 18.6145 129.303 18.5726C129.405 18.4888 129.506 18.393 129.614 18.3271C130.189 17.9799 130.77 17.6326 131.356 17.2973C132.213 16.8004 133.075 16.2974 133.949 15.8185C135.35 15.0521 136.763 14.3037 138.158 13.5313C137.841 12.747 137.487 11.9866 137.086 11.2501C136.116 11.8549 135.14 12.4476 134.159 13.0284C133.266 13.5552 132.356 14.0462 131.464 14.5671C130.572 15.094 129.704 15.6568 128.818 16.1777C127.818 16.7644 126.806 17.3213 125.8 17.896C124.327 18.7343 122.854 19.5845 121.382 20.4287C121.208 20.5305 121.052 20.6562 120.891 20.77C121.07 20.8957 121.202 20.9196 121.334 20.9196C121.998 20.9136 122.663 20.8837 123.321 20.8897C126.74 20.9256 130.165 20.9735 133.584 20.9975C135.577 21.0154 137.565 20.9795 139.553 20.9915C139.607 20.9915 139.655 20.9915 139.703 20.9915C139.679 20.1233 139.607 19.2671 139.487 18.4229V18.4289Z" fill="#56231E"/>
<path d="M135.044 8.17868C132.182 9.90901 129.302 11.6513 126.344 13.4355C126.344 13.238 126.314 13.1541 126.344 13.1062C126.751 12.3458 127.165 11.5974 127.584 10.849C127.709 10.6275 127.871 10.4299 127.991 10.2144C128.434 9.442 128.859 8.65766 129.32 7.89129C129.991 6.76568 130.679 5.65204 131.362 4.5384C130.727 4.04744 130.068 3.58641 129.38 3.16132C128.985 3.83189 128.596 4.51445 128.224 5.197C127.703 6.15497 127.218 7.1309 126.692 8.08288C125.955 9.41206 125.207 10.7293 124.452 12.0465C123.692 13.3697 122.932 14.6869 122.159 15.9981C121.56 17.0219 120.944 18.0278 120.345 19.0456C120.297 19.1235 120.309 19.2312 120.285 19.3869C120.465 19.327 120.585 19.3031 120.692 19.2432C122.183 18.387 123.668 17.5428 125.153 16.6747C126.572 15.8424 127.973 14.9803 129.392 14.148C130.511 13.4834 131.655 12.8488 132.793 12.2081C134.014 11.5196 135.229 10.8311 136.457 10.1545C136.026 9.46595 135.559 8.80735 135.056 8.17269L135.044 8.17868Z" fill="#56231E"/>
<path d="M125.877 1.44294C125.769 1.66447 125.661 1.886 125.547 2.10753C124.679 3.772 123.799 5.43648 122.919 7.10095C122.697 7.52605 122.488 7.95713 122.23 8.36427C121.913 8.86122 121.554 9.34619 121.123 9.95689C121.063 9.64555 121.015 9.51383 121.015 9.38211C121.015 8.65166 121.027 7.90923 121.039 7.17878C121.069 5.6161 121.099 4.05341 121.135 2.48473C121.153 1.73632 121.183 0.98192 121.212 0.233506C120.446 0.125735 119.668 0.0598743 118.877 0.0299377C118.859 3.61035 118.835 7.19076 118.8 10.7712C118.776 13.0763 118.71 15.3754 118.674 17.6745C118.674 17.938 118.74 18.2074 118.776 18.4708C119.273 17.8901 119.662 17.3333 119.991 16.7405C120.853 15.1599 121.661 13.5493 122.536 11.9746C123.098 10.9568 123.739 9.98084 124.338 8.98695C124.41 8.86122 124.482 8.73548 124.547 8.60975C125.032 7.69369 125.493 6.77165 126.002 5.86756C126.661 4.70602 127.337 3.55047 128.026 2.40091C127.331 2.04167 126.613 1.71836 125.877 1.43695V1.44294Z" fill="#56231E"/>
<path d="M115.124 0.227525C115.148 2.77812 115.172 5.32871 115.178 7.8793C115.178 8.496 115.106 9.11269 115.064 9.72938C114.98 9.75333 114.89 9.77728 114.806 9.79524C114.597 9.40008 114.387 8.99893 114.172 8.60377C113.513 7.43624 112.837 6.28668 112.214 5.10119C111.585 3.89774 110.981 2.67633 110.388 1.44894C109.615 1.7483 108.867 2.08359 108.143 2.46678C108.46 3.02958 108.783 3.5864 109.095 4.1552C109.819 5.46642 110.508 6.80159 111.238 8.11281C111.837 9.17256 112.489 10.2024 113.094 11.2621C113.639 12.2261 114.136 13.214 114.663 14.1839C115.321 15.3934 115.992 16.5968 116.669 17.7943C116.836 18.0936 117.04 18.3691 117.225 18.6565C117.279 18.6385 117.339 18.6205 117.393 18.6086C117.405 18.423 117.423 18.2373 117.423 18.0577C117.423 17.4829 117.393 16.9082 117.393 16.3274C117.411 13.214 117.429 10.1066 117.453 6.99917C117.459 5.84961 117.453 4.70603 117.465 3.56245C117.471 2.38296 117.477 1.20346 117.501 0.0239563C116.698 0.0479055 115.902 0.113766 115.124 0.221537V0.227525Z" fill="#56231E"/>
<path d="M105.449 5.49036C106.108 6.58005 106.772 7.66375 107.419 8.75943C108.012 9.77128 108.592 10.7891 109.167 11.807C109.431 12.274 109.688 12.741 110.017 13.3337C109.772 13.2978 109.682 13.3098 109.616 13.2739C108.928 12.9086 108.221 12.5614 107.557 12.1482C106.647 11.5914 105.778 10.9687 104.88 10.394C103.689 9.63357 102.485 8.89714 101.294 8.14274C100.785 8.77739 100.318 9.44198 99.8809 10.1305C100.641 10.5796 101.402 11.0286 102.162 11.4777C103.467 12.25 104.778 13.0164 106.084 13.7828C107.856 14.8186 109.628 15.8604 111.4 16.8902C112.748 17.6685 114.095 18.4409 115.448 19.2073C115.574 19.2791 115.747 19.2672 116.035 19.321C115.789 18.9139 115.615 18.6445 115.472 18.3631C114.951 17.3871 114.442 16.4052 113.903 15.4413C113.358 14.4713 112.754 13.5373 112.215 12.5674C111.682 11.6214 111.197 10.6394 110.682 9.68147C109.993 8.3942 109.311 7.10693 108.604 5.82565C108.095 4.90959 107.569 3.99952 107.036 3.08945C106.299 3.53251 105.593 4.02347 104.916 4.55035C105.096 4.86169 105.275 5.16704 105.461 5.47838L105.449 5.49036Z" fill="#56231E"/>
<path d="M98.1265 13.5613C98.833 13.9205 99.5335 14.2857 100.222 14.6689C101.809 15.5551 103.401 16.4532 104.976 17.3632C105.569 17.7045 106.132 18.0997 106.706 18.4709C106.688 18.5427 106.67 18.6026 106.652 18.6744C106.371 18.6984 106.096 18.7463 105.814 18.7463C104.904 18.7463 103.988 18.7463 103.078 18.7104C100.988 18.6445 98.8929 18.5727 96.8033 18.4828C96.6895 19.2732 96.6237 20.0815 96.5938 20.9017C99.4018 20.8838 102.21 20.8838 105.018 20.8957C108.221 20.9077 111.43 20.9436 114.639 20.9616C114.855 20.9616 115.071 20.9137 115.286 20.8897C115.292 20.8418 115.298 20.7999 115.304 20.752C109.921 17.6147 104.539 14.4773 99.1563 11.346C98.7731 12.0585 98.4319 12.8009 98.1265 13.5613Z" fill="#56231E"/>
</svg>
